<?xml version="1.0" encoding="us-ascii" standalone="no"?><svg xmlns="http://www.w3.org/2000/svg" xmlns:xlink="http://www.w3.org/1999/xlink" contentStyleType="text/css" height="667px" preserveAspectRatio="none" style="width:931px;height:667px;background:#FFFFFF;" version="1.1" viewBox="0 0 931 667" width="931px" zoomAndPan="magnify"><defs><filter height="1" id="b1lmfeca1k2wji0" width="1" x="0" y="0"><feFlood flood-color="#90EE90" result="flood"/><feComposite in="SourceGraphic" in2="flood" operator="over"/></filter><filter height="1" id="b1lmfeca1k2wji1" width="1" x="0" y="0"><feFlood flood-color="#DDA0DD" result="flood"/><feComposite in="SourceGraphic" in2="flood" operator="over"/></filter><filter height="1" id="b1lmfeca1k2wji2" width="1" x="0" y="0"><feFlood flood-color="#ADD8E6" result="flood"/><feComposite in="SourceGraphic" in2="flood" operator="over"/></filter></defs><g><text fill="#000000" font-family="sans-serif" font-size="14" font-weight="bold" lengthAdjust="spacing" textLength="420" x="248.5" y="25.1074">Keyple - keyple-distributed-local-java-api - 2.1.+ (2023-09-13)</text><rect fill="#DDDDDD" height="103.1055" id="_legend" rx="7.5" ry="7.5" style="stroke:#000000;stroke-width:1.0;" width="558" x="179.5" y="51.6211"/><text fill="#000000" font-family="sans-serif" font-size="14" lengthAdjust="spacing" text-decoration="underline" textLength="88" x="184.5" y="71.7285">Colors legend</text><text fill="#000000" font-family="sans-serif" font-size="14" lengthAdjust="spacing" textLength="4" x="276.5" y="71.7285">:</text><ellipse cx="190" cy="86.3633" fill="#000000" rx="2.5" ry="2.5" style="stroke:#000000;stroke-width:0.0;"/><text fill="#000000" font-family="sans-serif" font-size="14" lengthAdjust="spacing" text-decoration="underline" textLength="257" x="196.5" y="90.3496">Keyple Distributed solution usage modes</text><text fill="#000000" font-family="sans-serif" font-size="14" lengthAdjust="spacing" textLength="4" x="457.5" y="90.3496">:</text><rect fill="#000000" height="3.5" style="stroke:#000000;stroke-width:0.0;" width="3.5" x="193.5" y="102.4844"/><text fill="#000000" filter="url(#b1lmfeca1k2wji0)" font-family="sans-serif" font-size="14" font-weight="bold" lengthAdjust="spacing" textLength="131" x="200.5" y="108.9707">Reader Client Side</text><text fill="#000000" font-family="sans-serif" font-size="14" lengthAdjust="spacing" textLength="110" x="335.5" y="108.9707">(Local Service on</text><text fill="#000000" font-family="sans-serif" font-size="14" font-weight="bold" lengthAdjust="spacing" textLength="41" x="449.5" y="108.9707">Client</text><text fill="#000000" font-family="sans-serif" font-size="14" lengthAdjust="spacing" textLength="5" x="490.5" y="108.9707">)</text><rect fill="#000000" height="3.5" style="stroke:#000000;stroke-width:0.0;" width="3.5" x="193.5" y="121.1055"/><text fill="#000000" filter="url(#b1lmfeca1k2wji1)" font-family="sans-serif" font-size="14" font-weight="bold" lengthAdjust="spacing" textLength="138" x="200.5" y="127.5918">Reader Server Side</text><text fill="#000000" font-family="sans-serif" font-size="14" lengthAdjust="spacing" textLength="110" x="342.5" y="127.5918">(Local Service on</text><text fill="#000000" font-family="sans-serif" font-size="14" font-weight="bold" lengthAdjust="spacing" textLength="48" x="456.5" y="127.5918">Server</text><text fill="#000000" font-family="sans-serif" font-size="14" lengthAdjust="spacing" textLength="24" x="508.5" y="127.5918">with</text><text fill="#000000" font-family="sans-serif" font-size="14" font-weight="bold" lengthAdjust="spacing" textLength="44" x="536.5" y="127.5918">Plugin</text><text fill="#000000" font-family="sans-serif" font-size="14" lengthAdjust="spacing" textLength="13" x="584.5" y="127.5918">or</text><text fill="#000000" font-family="sans-serif" font-size="14" font-weight="bold" lengthAdjust="spacing" textLength="126" x="601.5" y="127.5918">ObservablePlugin</text><text fill="#000000" font-family="sans-serif" font-size="14" lengthAdjust="spacing" textLength="5" x="727.5" y="127.5918">)</text><rect fill="#000000" height="3.5" style="stroke:#000000;stroke-width:0.0;" width="3.5" x="193.5" y="139.7266"/><text fill="#000000" filter="url(#b1lmfeca1k2wji2)" font-family="sans-serif" font-size="14" font-weight="bold" lengthAdjust="spacing" textLength="138" x="200.5" y="146.2129">Reader Server Side</text><text fill="#000000" font-family="sans-serif" font-size="14" lengthAdjust="spacing" textLength="110" x="342.5" y="146.2129">(Local Service on</text><text fill="#000000" font-family="sans-serif" font-size="14" font-weight="bold" lengthAdjust="spacing" textLength="48" x="456.5" y="146.2129">Server</text><text fill="#000000" font-family="sans-serif" font-size="14" lengthAdjust="spacing" textLength="24" x="508.5" y="146.2129">with</text><text fill="#000000" font-family="sans-serif" font-size="14" font-weight="bold" lengthAdjust="spacing" textLength="75" x="536.5" y="146.2129">PoolPlugin</text><text fill="#000000" font-family="sans-serif" font-size="14" lengthAdjust="spacing" textLength="5" x="611.5" y="146.2129">)</text><!--cluster api--><g id="cluster_api"><path d="M8.5,173.7402 L292.5,173.7402 A3.75,3.75 0 0 1 295,176.2402 L302,198.3613 L921.5,198.3613 A2.5,2.5 0 0 1 924,200.8613 L924,658.2402 A2.5,2.5 0 0 1 921.5,660.7402 L8.5,660.7402 A2.5,2.5 0 0 1 6,658.2402 L6,176.2402 A2.5,2.5 0 0 1 8.5,173.7402 " fill="#F8F9F9" style="stroke:#000000;stroke-width:1.5;"/><line style="stroke:#000000;stroke-width:1.5;" x1="6" x2="302" y1="198.3613" y2="198.3613"/><text fill="#000000" font-family="sans-serif" font-size="14" font-weight="bold" lengthAdjust="spacing" textLength="283" x="10" y="190.8477">org.eclipse.keyple.core.distributed.local</text></g><!--cluster spi--><g id="cluster_spi"><path d="M476.5,218.7402 L498.5,218.7402 A3.75,3.75 0 0 1 501,221.2402 L508,243.3613 L897.5,243.3613 A2.5,2.5 0 0 1 900,245.8613 L900,634.2402 A2.5,2.5 0 0 1 897.5,636.7402 L476.5,636.7402 A2.5,2.5 0 0 1 474,634.2402 L474,221.2402 A2.5,2.5 0 0 1 476.5,218.7402 " fill="#F2F3F4" style="stroke:#000000;stroke-width:1.5;"/><line style="stroke:#000000;stroke-width:1.5;" x1="474" x2="508" y1="243.3613" y2="243.3613"/><text fill="#000000" font-family="sans-serif" font-size="14" font-weight="bold" lengthAdjust="spacing" textLength="21" x="478" y="235.8477">spi</text></g><!--class ApiProperties--><g id="elem_ApiProperties"><rect codeLine="62" fill="#FEFECE" height="66.6211" id="ApiProperties" rx="2.5" ry="2.5" style="stroke:#D4AC0D;stroke-width:2.0;" width="264" x="173" y="283.2402"/><ellipse cx="188" cy="299.2402" fill="#ADD1B2" rx="11" ry="11" style="stroke:#181818;stroke-width:1.0;"/><path d="M190.7656,295.1152 Q190.9219,294.8965 191.1094,294.7871 Q191.2969,294.6777 191.5156,294.6777 Q191.8906,294.6777 192.125,294.9434 Q192.3594,295.1934 192.3594,295.8027 L192.3594,297.2559 Q192.3594,297.8652 192.125,298.1309 Q191.8906,298.3965 191.5156,298.3965 Q191.1719,298.3965 190.9688,298.1934 Q190.7656,298.0059 190.6563,297.4902 Q190.6094,297.1309 190.4219,296.9434 Q190.0938,296.5684 189.4844,296.3496 Q188.875,296.1309 188.25,296.1309 Q187.4844,296.1309 186.8438,296.459 Q186.2188,296.7871 185.7188,297.5371 Q185.2344,298.2871 185.2344,299.3184 L185.2344,300.4121 Q185.2344,301.6465 186.125,302.4746 Q187.0156,303.2871 188.6094,303.2871 Q189.5469,303.2871 190.2031,303.0371 Q190.5938,302.8809 191.0156,302.4434 Q191.2813,302.1777 191.4219,302.0996 Q191.5781,302.0215 191.7813,302.0215 Q192.1094,302.0215 192.3594,302.2871 Q192.625,302.5371 192.625,302.8809 Q192.625,303.2246 192.2813,303.6309 Q191.7813,304.209 190.9844,304.5371 Q189.9063,304.9902 188.6094,304.9902 Q187.0938,304.9902 185.8906,304.3652 Q184.9063,303.8652 184.2188,302.8027 Q183.5313,301.7246 183.5313,300.4434 L183.5313,299.2871 Q183.5313,297.959 184.1406,296.8184 Q184.7656,295.6621 185.8594,295.0527 Q186.9531,294.4277 188.1875,294.4277 Q188.9219,294.4277 189.5625,294.5996 Q190.2188,294.7559 190.7656,295.1152 Z " fill="#000000"/><ellipse cx="207" cy="298.7402" fill="#84BE84" rx="3" ry="3" style="stroke:#038048;stroke-width:1.0;"/><text fill="#000000" font-family="sans-serif" font-size="14" font-weight="bold" lengthAdjust="spacing" textLength="30" x="213" y="305.0371">final</text><text fill="#000000" font-family="sans-serif" font-size="14" lengthAdjust="spacing" textLength="187" x="247" y="305.0371">DistributedLocalApiProperties</text><line style="stroke:#D4AC0D;stroke-width:2.0;" x1="174" x2="436" y1="315.2402" y2="315.2402"/><ellipse cx="184" cy="330.0508" fill="none" rx="3" ry="3" style="stroke:#038048;stroke-width:1.0;"/><text fill="#000000" font-family="sans-serif" font-size="14" font-weight="bold" lengthAdjust="spacing" text-decoration="underline" textLength="30" x="193" y="334.3477">final</text><text fill="#000000" font-family="sans-serif" font-size="14" lengthAdjust="spacing" text-decoration="underline" textLength="101" x="227" y="334.3477">String VERSION</text><line style="stroke:#D4AC0D;stroke-width:2.0;" x1="174" x2="436" y1="341.8613" y2="341.8613"/></g><!--class LocalServiceApi--><g id="elem_LocalServiceApi"><rect codeLine="65" fill="#FEFECE" height="107.8633" id="LocalServiceApi" rx="2.5" ry="2.5" style="stroke:#D4AC0D;stroke-width:2.0;" width="398" x="22" y="484.7402"/><ellipse cx="161.25" cy="500.7402" fill="#B4A7E5" rx="11" ry="11" style="stroke:#181818;stroke-width:1.0;"/><path d="M162.2031,497.3809 L162.2031,504.0371 L163.9219,504.0371 Q164.5313,504.0371 164.7969,504.2715 Q165.0625,504.5059 165.0625,504.8965 Q165.0625,505.2715 164.7969,505.5059 Q164.5313,505.7402 163.9219,505.7402 L158.7813,505.7402 Q158.1719,505.7402 157.9063,505.5059 Q157.6406,505.2715 157.6406,504.8809 Q157.6406,504.5059 157.9063,504.2715 Q158.1719,504.0371 158.7813,504.0371 L160.5,504.0371 L160.5,497.3809 L158.7813,497.3809 Q158.1719,497.3809 157.9063,497.1465 Q157.6406,496.9121 157.6406,496.5215 Q157.6406,496.1465 157.9063,495.9121 Q158.1719,495.6777 158.7813,495.6777 L163.9219,495.6777 Q164.5313,495.6777 164.7969,495.9121 Q165.0625,496.1465 165.0625,496.5215 Q165.0625,496.9121 164.7969,497.1465 Q164.5313,497.3809 163.9219,497.3809 L162.2031,497.3809 Z " fill="#000000"/><ellipse cx="186.75" cy="500.2402" fill="#84BE84" rx="3" ry="3" style="stroke:#038048;stroke-width:1.0;"/><text fill="#000000" font-family="sans-serif" font-size="14" font-style="italic" lengthAdjust="spacing" textLength="100" x="192.75" y="506.5371">LocalServiceApi</text><line style="stroke:#D4AC0D;stroke-width:2.0;" x1="23" x2="419" y1="516.7402" y2="516.7402"/><line style="stroke:#D4AC0D;stroke-width:1.0;" x1="23" x2="419" y1="524.7402" y2="524.7402"/><ellipse cx="33" cy="539.5508" fill="#84BE84" rx="3" ry="3" style="stroke:#038048;stroke-width:1.0;"/><text fill="#000000" font-family="sans-serif" font-size="14" lengthAdjust="spacing" textLength="372" x="42" y="543.8477">String executeLocally (String jsonData, String readerName)</text><ellipse cx="33" cy="580.793" fill="#84BE84" rx="3" ry="3" style="stroke:#038048;stroke-width:1.0;"/><text fill="#000000" font-family="sans-serif" font-size="14" lengthAdjust="spacing" textLength="335" x="42" y="585.0898">void setPoolPluginNames (String... poolPluginNames)</text><line style="stroke:#D4AC0D;stroke-width:1.0;stroke-dasharray:1.0,2.0;" x1="23" x2="134.5" y1="560.6719" y2="560.6719"/><text fill="#000000" filter="url(#b1lmfeca1k2wji2)" font-family="sans-serif" font-size="14" font-weight="bold" lengthAdjust="spacing" textLength="173" x="134.5" y="565.9688">Pool Reader Server Side</text><line style="stroke:#D4AC0D;stroke-width:1.0;stroke-dasharray:1.0,2.0;" x1="307.5" x2="419" y1="560.6719" y2="560.6719"/></g><!--class LocalServiceFactorySpi--><g id="elem_LocalServiceFactorySpi"><rect codeLine="72" fill="#FEFECE" height="122.4844" id="LocalServiceFactorySpi" rx="2.5" ry="2.5" style="stroke:#D4AC0D;stroke-width:2.0;" width="271" x="551.5" y="255.7402"/><ellipse cx="603.25" cy="271.7402" fill="#B4A7E5" rx="11" ry="11" style="stroke:#181818;stroke-width:1.0;"/><path d="M604.2031,268.3809 L604.2031,275.0371 L605.9219,275.0371 Q606.5313,275.0371 606.7969,275.2715 Q607.0625,275.5059 607.0625,275.8965 Q607.0625,276.2715 606.7969,276.5059 Q606.5313,276.7402 605.9219,276.7402 L600.7813,276.7402 Q600.1719,276.7402 599.9063,276.5059 Q599.6406,276.2715 599.6406,275.8809 Q599.6406,275.5059 599.9063,275.2715 Q600.1719,275.0371 600.7813,275.0371 L602.5,275.0371 L602.5,268.3809 L600.7813,268.3809 Q600.1719,268.3809 599.9063,268.1465 Q599.6406,267.9121 599.6406,267.5215 Q599.6406,267.1465 599.9063,266.9121 Q600.1719,266.6777 600.7813,266.6777 L605.9219,266.6777 Q606.5313,266.6777 606.7969,266.9121 Q607.0625,267.1465 607.0625,267.5215 Q607.0625,267.9121 606.7969,268.1465 Q606.5313,268.3809 605.9219,268.3809 L604.2031,268.3809 Z " fill="#000000"/><ellipse cx="628.75" cy="271.2402" fill="#84BE84" rx="3" ry="3" style="stroke:#038048;stroke-width:1.0;"/><text fill="#000000" font-family="sans-serif" font-size="14" font-style="italic" lengthAdjust="spacing" textLength="148" x="634.75" y="277.5371">LocalServiceFactorySpi</text><line style="stroke:#D4AC0D;stroke-width:2.0;" x1="552.5" x2="821.5" y1="287.7402" y2="287.7402"/><line style="stroke:#D4AC0D;stroke-width:2.0;" x1="552.5" x2="821.5" y1="295.7402" y2="295.7402"/><ellipse cx="562.5" cy="310.5508" fill="#84BE84" rx="3" ry="3" style="stroke:#038048;stroke-width:1.0;"/><text fill="#000000" font-family="sans-serif" font-size="14" lengthAdjust="spacing" textLength="245" x="571.5" y="314.8477">String getDistributedLocalApiVersion ()</text><ellipse cx="562.5" cy="329.1719" fill="#84BE84" rx="3" ry="3" style="stroke:#038048;stroke-width:1.0;"/><text fill="#000000" font-family="sans-serif" font-size="14" lengthAdjust="spacing" textLength="199" x="571.5" y="333.4688">String getCommonApiVersion ()</text><ellipse cx="562.5" cy="347.793" fill="#84BE84" rx="3" ry="3" style="stroke:#038048;stroke-width:1.0;"/><text fill="#000000" font-family="sans-serif" font-size="14" lengthAdjust="spacing" textLength="192" x="571.5" y="352.0898">String getLocalServiceName ()</text><ellipse cx="562.5" cy="366.4141" fill="#84BE84" rx="3" ry="3" style="stroke:#038048;stroke-width:1.0;"/><text fill="#000000" font-family="sans-serif" font-size="14" lengthAdjust="spacing" textLength="220" x="571.5" y="370.7109">LocalServiceSpi getLocalService ()</text></g><!--class LocalServiceSpi--><g id="elem_LocalServiceSpi"><rect codeLine="78" fill="#FEFECE" height="163.7266" id="LocalServiceSpi" rx="2.5" ry="2.5" style="stroke:#D4AC0D;stroke-width:2.0;" width="393" x="490.5" y="456.7402"/><ellipse cx="627.25" cy="472.7402" fill="#B4A7E5" rx="11" ry="11" style="stroke:#181818;stroke-width:1.0;"/><path d="M628.2031,469.3809 L628.2031,476.0371 L629.9219,476.0371 Q630.5313,476.0371 630.7969,476.2715 Q631.0625,476.5059 631.0625,476.8965 Q631.0625,477.2715 630.7969,477.5059 Q630.5313,477.7402 629.9219,477.7402 L624.7813,477.7402 Q624.1719,477.7402 623.9063,477.5059 Q623.6406,477.2715 623.6406,476.8809 Q623.6406,476.5059 623.9063,476.2715 Q624.1719,476.0371 624.7813,476.0371 L626.5,476.0371 L626.5,469.3809 L624.7813,469.3809 Q624.1719,469.3809 623.9063,469.1465 Q623.6406,468.9121 623.6406,468.5215 Q623.6406,468.1465 623.9063,467.9121 Q624.1719,467.6777 624.7813,467.6777 L629.9219,467.6777 Q630.5313,467.6777 630.7969,467.9121 Q631.0625,468.1465 631.0625,468.5215 Q631.0625,468.9121 630.7969,469.1465 Q630.5313,469.3809 629.9219,469.3809 L628.2031,469.3809 Z " fill="#000000"/><ellipse cx="652.75" cy="472.2402" fill="#84BE84" rx="3" ry="3" style="stroke:#038048;stroke-width:1.0;"/><text fill="#000000" font-family="sans-serif" font-size="14" font-style="italic" lengthAdjust="spacing" textLength="100" x="658.75" y="478.5371">LocalServiceSpi</text><line style="stroke:#D4AC0D;stroke-width:2.0;" x1="491.5" x2="882.5" y1="488.7402" y2="488.7402"/><line style="stroke:#D4AC0D;stroke-width:1.0;" x1="491.5" x2="882.5" y1="496.7402" y2="496.7402"/><ellipse cx="501.5" cy="511.5508" fill="#84BE84" rx="3" ry="3" style="stroke:#038048;stroke-width:1.0;"/><text fill="#000000" font-family="sans-serif" font-size="14" lengthAdjust="spacing" textLength="295" x="510.5" y="515.8477">void connect (LocalServiceApi localServiceApi)</text><ellipse cx="501.5" cy="530.1719" fill="#84BE84" rx="3" ry="3" style="stroke:#038048;stroke-width:1.0;"/><text fill="#000000" font-family="sans-serif" font-size="14" lengthAdjust="spacing" textLength="111" x="510.5" y="534.4688">String getName ()</text><ellipse cx="501.5" cy="548.793" fill="#84BE84" rx="3" ry="3" style="stroke:#038048;stroke-width:1.0;"/><text fill="#0000FF" font-family="sans-serif" font-size="14" lengthAdjust="spacing" textLength="249" x="510.5" y="553.0898">int exchangeApiLevel (int coreApiLevel)</text><ellipse cx="501.5" cy="590.0352" fill="#84BE84" rx="3" ry="3" style="stroke:#038048;stroke-width:1.0;"/><text fill="#000000" font-family="sans-serif" font-size="14" lengthAdjust="spacing" textLength="359" x="510.5" y="594.332">void onPluginEvent (String readerName, String jsonData)</text><ellipse cx="501.5" cy="608.6563" fill="#84BE84" rx="3" ry="3" style="stroke:#038048;stroke-width:1.0;"/><text fill="#000000" font-family="sans-serif" font-size="14" lengthAdjust="spacing" textLength="367" x="510.5" y="612.9531">void onReaderEvent (String readerName, String jsonData)</text><line style="stroke:#D4AC0D;stroke-width:1.0;stroke-dasharray:1.0,2.0;" x1="491.5" x2="618" y1="569.9141" y2="569.9141"/><text fill="#000000" filter="url(#b1lmfeca1k2wji1)" font-family="sans-serif" font-size="14" font-weight="bold" lengthAdjust="spacing" textLength="138" x="618" y="575.2109">Reader Server Side</text><line style="stroke:#D4AC0D;stroke-width:1.0;stroke-dasharray:1.0,2.0;" x1="756" x2="882.5" y1="569.9141" y2="569.9141"/></g><!--reverse link ApiProperties to LocalServiceFactorySpi--><g id="link_ApiProperties_LocalServiceFactorySpi"><path codeLine="92" d="M443.265,316.7402 C480.128,316.7402 514.225,316.7402 551.283,316.7402 " fill="none" id="ApiProperties-backto-LocalServiceFactorySpi" style="stroke:#3498DB;stroke-width:2.0;stroke-dasharray:7.0,7.0;"/><polygon fill="#3498DB" points="437.265,316.7402,446.265,320.7402,442.265,316.7402,446.265,312.7402,437.265,316.7402" style="stroke:#3498DB;stroke-width:2.0;"/><text fill="#000000" font-family="sans-serif" font-size="13" lengthAdjust="spacing" textLength="40" x="474.25" y="292.7686">provide</text><polygon fill="#000000" points="455.25,304.6768,464.2951,307.6157,464.2951,301.7378,455.25,304.6768" style="stroke:#000000;stroke-width:1.0;"/><text fill="#000000" font-family="sans-serif" font-size="13" lengthAdjust="spacing" textLength="65" x="468.25" y="310.0596">API version</text></g><!--link LocalServiceFactorySpi to LocalServiceSpi--><g id="link_LocalServiceFactorySpi_LocalServiceSpi"><path codeLine="93" d="M687,377.8562 C687,402.1552 687,424.5752 687,450.6602 " fill="none" id="LocalServiceFactorySpi-to-LocalServiceSpi" style="stroke:#3498DB;stroke-width:2.0;stroke-dasharray:7.0,7.0;"/><polygon fill="#3498DB" points="687,456.6602,691,447.6602,687,451.6602,683,447.6602,687,456.6602" style="stroke:#3498DB;stroke-width:2.0;"/><polygon fill="#000000" points="692,422.3857,694.9389,413.3407,689.0611,413.3407,692,422.3857" style="stroke:#000000;stroke-width:1.0;"/><text fill="#000000" font-family="sans-serif" font-size="13" lengthAdjust="spacing" textLength="40" x="701" y="422.7686">provide</text></g><!--reverse link LocalServiceApi to LocalServiceSpi--><g id="link_LocalServiceApi_LocalServiceSpi"><path codeLine="95" d="M426.316,538.7402 C449.553,538.7402 467.247,538.7402 490.446,538.7402 " fill="none" id="LocalServiceApi-backto-LocalServiceSpi" style="stroke:#27AE60;stroke-width:2.0;stroke-dasharray:7.0,7.0;"/><polygon fill="#27AE60" points="420.316,538.7402,429.316,542.7402,425.316,538.7402,429.316,534.7402,420.316,538.7402" style="stroke:#27AE60;stroke-width:2.0;"/><polygon fill="#000000" points="437.25,526.3857,446.2951,529.3247,446.2951,523.4468,437.25,526.3857" style="stroke:#000000;stroke-width:1.0;"/><text fill="#000000" font-family="sans-serif" font-size="13" lengthAdjust="spacing" textLength="21" x="451.25" y="531.7686">use</text></g><!--SRC=[hLTHJ-Cu47xlhvY31sZs4g0jMrfraTB4sKNB5KJPbT3T2Pd4j5dSEBATSXNgVp_RIPka58fErnUIyJVVDpCUZuEC9IKDKB_lP95I0ZOycGSxYeNayKCcIMHJ5c9g_y9pRECqLfYMS-9yWiFMSQjj7_ViatQpGP88f65h7C2NBt3x3Vs1r8DwzLX6ISO5n49aH414e0zJALFHFpgQoXaD6MKyP14HJiXcHu_yIE87Id1cHyGES-yj9lKeuabYfnJBeyPl4NcC4mBU_TSRT7S2mLdG2teRvXO4hQ0TT3RCRK2dg8isqHtmk_xGzpVCf-2vNk2tDioVOUXxRQzRCLzUZBv3kzCxyuSLwuynWbRNHP-FTQri6yPoGLLTv1HBY5Xo8E6PyITuZkKK4l8CSy95p19WZw1oJMGseygj8PxY9CKSpq18mWcJYvIuGyOZmZrTKTXtUxxd1rk15pNWiEDsqUbMe5TdzFsJOMih4DM0QDXhAscJ7nhvEjwAbqUn43d-TXg7JmaH0ggqBkVikRgacEu8fUpv5GiEdoQSPKbKA0SeG1xQBbP0_8xh7VkAyeP4E_W60qwYytD5woCVUU_Ghf6esr5zq9Z6gj5Nnh9CIlKwu-g8xHHE3SneTv0NTD_LBi5dgDDn_PNysbwBu85ck_KroEGp34w3uRlgAsZHwuLsOQqfV-M493kb9nfbj7j15mNlQg-nnPagn5VcJVN5HyGNHjjLVOHsQHjeoskZqwhqegwSpqJlQdIBHhTcAb8oCIEJfMRytjyRHW6v_VuU-iPkgPLYDFlbH0R1Q2RrICW4dX2OwTbP-bWmU519zMaycKfJy7FBkY5OnQroY4aYOQmYjQp1aSQTm-6bdl0m9dmUXmGKhsNbGCjgrZbJcirADksX_-naou6AnGmroxgcsIHErBiwZfPrzI3KkXxmAtjpIoP3tKx_WpHZj9JHcv3NlD585OSkvnxZ4uU4D4u5SVBxK5rCd3YLIz4nb-8UO07wJdmnyNuATOV0dcMfKO-fqgnicWdDJUDhpbB2PKo4yQvP2Xx3zI8abd6uX99jhBYI2Vn4D-EBgv61BdFXE57DzeXLpaQcA82xZap_r0XUanTCv1yIgjYC3rt0OM7-9LZYOub_NoboK_CHdf7cciDnjcoEBYwyjqEEKmOnPx5gPIBB7T4AOXM6enJI-bApalDgjqGjoJSg4U1GChuOrx3LIao8tB9NFukRzx3vbfF7PZEMV0XQZKTdymfQ1UX8Dtog-EMkX5zdMjd-ileXIn8IokBWLDg6rj_VJ6fh8WFpHTStyr-5fzeidE9aeeakoPnGEDHMVQHMbZh1khK-C6qg3LMcnPAyQT1S3xl3LrsyRknLfpUtakIw_u5aMVJfKaz-LmWMnbZFQz5elD6L3YMFqZdV60VxnJTa7rBEvYhllnBt-cBzGJXuaqqnRNR3AouuhqTJ3MEp7VRppzQ-kd2CdxdFBjsxgn_vTNQWp_0DcJ5PZ71DPl-fBiI897_RK4xu3L11DRwzkyp_NLWTQvohvX_pBykgtH7bMakl_Gi0]--></g></svg>